HIERARCHY
ROOT Hips
{
	OFFSET 0.000000 100.481300 0.000000
	CHANNELS 6 Xposition Yposition Zposition Xrotation Yrotation Zrotation 
	JOINT Spine
	{
		OFFSET -0.279200 12.230698 -2.892100
		CHANNELS 3 Xrotation Yrotation Zrotation
		JOINT Spine1
		{
			OFFSET -0.232667 10.192268 -1.242267
			CHANNELS 3 Xrotation Yrotation Zrotation
			JOINT Spine1_split
			{
				OFFSET -0.232667 10.192268 -1.242267
				CHANNELS 3 Xrotation Yrotation Zrotation
				JOINT Spine2
				{
					OFFSET -0.232667 10.192268 -1.242267
					CHANNELS 3 Xrotation Yrotation Zrotation
					JOINT Neck
					{
						OFFSET -0.418800 17.814194 8.416900
						CHANNELS 3 Xrotation Yrotation Zrotation
						JOINT Head
						{
							OFFSET 0.000000 7.031097 3.806800
							CHANNELS 3 Xrotation Yrotation Zrotation
							JOINT HeadTop_End
							{
								OFFSET 0.000000 24.646606 12.978600
								CHANNELS 3 Xrotation Yrotation Zrotation
								End Site
								{
									OFFSET 0.000000 0.000000 0.000000
								}
							}
						}
					}
					JOINT LeftShoulder
					{
						OFFSET 8.476499 7.247704 -3.868750
						CHANNELS 3 Xrotation Yrotation Zrotation
						JOINT LeftShoulder_split
						{
							OFFSET 8.476499 7.247704 -3.868750
							CHANNELS 3 Xrotation Yrotation Zrotation
							JOINT LeftArm
							{
								OFFSET 9.308998 -2.777710 0.208600
								CHANNELS 3 Xrotation Yrotation Zrotation
								JOINT LeftForeArm
								{
									OFFSET 29.972298 0.000000 0.000000
									CHANNELS 3 Xrotation Yrotation Zrotation
									JOINT LeftHand
									{
										OFFSET 26.026505 0.000000 0.000000
										CHANNELS 3 Xrotation Yrotation Zrotation
										JOINT LeftHandThumb1
										{
											OFFSET 12.240501 -7.147949 9.207150
											CHANNELS 3 Xrotation Yrotation Zrotation
											JOINT LeftHandThumb2
											{
												OFFSET 4.138618 -2.389435 2.389433
												CHANNELS 3 Xrotation Yrotation Zrotation
												JOINT LeftHandThumb3
												{
													OFFSET 2.726913 -1.574387 1.574386
													CHANNELS 3 Xrotation Yrotation Zrotation
													JOINT LeftHandThumb4
													{
														OFFSET 3.941010 -2.275345 2.275342
														CHANNELS 3 Xrotation Yrotation Zrotation
														End Site
														{
															OFFSET 0.000000 0.000000 0.000000
														}
													}
												}
											}
										}
										JOINT LeftHandIndex1
										{
											OFFSET 24.424698 -1.985611 5.953459
											CHANNELS 3 Xrotation Yrotation Zrotation
											JOINT LeftHandIndex2
											{
												OFFSET 6.426697 0.000000 0.000000
												CHANNELS 3 Xrotation Yrotation Zrotation
												JOINT LeftHandIndex3
												{
													OFFSET 5.337898 0.000000 0.000000
													CHANNELS 3 Xrotation Yrotation Zrotation
													JOINT LeftHandIndex4
													{
														OFFSET 4.409401 0.000000 0.000000
														CHANNELS 3 Xrotation Yrotation Zrotation
														End Site
														{
															OFFSET 0.000000 0.000000 0.000000
														}
													}
												}
											}
										}
										JOINT LeftHandMiddle1
										{
											OFFSET 23.810104 0.000000 0.000000
											CHANNELS 3 Xrotation Yrotation Zrotation
											JOINT LeftHandMiddle2
											{
												OFFSET 7.176498 0.000000 0.000000
												CHANNELS 3 Xrotation Yrotation Zrotation
												JOINT LeftHandMiddle3
												{
													OFFSET 6.774902 0.000000 0.000000
													CHANNELS 3 Xrotation Yrotation Zrotation
													JOINT LeftHandMiddle4
													{
														OFFSET 5.403328 0.000000 0.000000
														CHANNELS 3 Xrotation Yrotation Zrotation
														End Site
														{
															OFFSET 0.000000 0.000000 0.000000
														}
													}
												}
											}
										}
										JOINT LeftHandRing1
										{
											OFFSET 22.908401 -0.839279 -6.020567
											CHANNELS 3 Xrotation Yrotation Zrotation
											JOINT LeftHandRing2
											{
												OFFSET 6.337502 0.000000 0.000000
												CHANNELS 3 Xrotation Yrotation Zrotation
												JOINT LeftHandRing3
												{
													OFFSET 5.779297 0.000000 0.000000
													CHANNELS 3 Xrotation Yrotation Zrotation
													JOINT LeftHandRing4
													{
														OFFSET 4.965698 0.000000 0.000000
														CHANNELS 3 Xrotation Yrotation Zrotation
														End Site
														{
															OFFSET 0.000000 0.000000 0.000000
														}
													}
												}
											}
										}
										JOINT LeftHandPinky1
										{
											OFFSET 20.037003 -1.530319 -10.950146
											CHANNELS 3 Xrotation Yrotation Zrotation
											JOINT LeftHandPinky2
											{
												OFFSET 5.254700 0.000000 0.000000
												CHANNELS 3 Xrotation Yrotation Zrotation
												JOINT LeftHandPinky3
												{
													OFFSET 4.810204 0.000000 0.000000
													CHANNELS 3 Xrotation Yrotation Zrotation
													JOINT LeftHandPinky4
													{
														OFFSET 3.647202 0.000000 0.000000
														CHANNELS 3 Xrotation Yrotation Zrotation
														End Site
														{
															OFFSET 0.000000 0.000000 0.000000
														}
													}
												}
											}
										}
									}
								}
							}
						}
					}
					JOINT RightShoulder
					{
						OFFSET -7.570500 7.247704 -3.868750
						CHANNELS 3 Xrotation Yrotation Zrotation
						JOINT RightShoulder_split
						{
							OFFSET -7.570500 7.247704 -3.868750
							CHANNELS 3 Xrotation Yrotation Zrotation
							JOINT RightArm
							{
								OFFSET -9.308998 -2.777710 0.208500
								CHANNELS 3 Xrotation Yrotation Zrotation
								JOINT RightForeArm
								{
									OFFSET -29.972300 0.000000 0.000000
									CHANNELS 3 Xrotation Yrotation Zrotation
									JOINT RightHand
									{
										OFFSET -26.026505 0.000000 0.000000
										CHANNELS 3 Xrotation Yrotation Zrotation
										JOINT RightHandThumb1
										{
											OFFSET -12.240601 -7.148026 9.207092
											CHANNELS 3 Xrotation Yrotation Zrotation
											JOINT RightHandThumb2
											{
												OFFSET -4.138618 -2.389435 2.389433
												CHANNELS 3 Xrotation Yrotation Zrotation
												JOINT RightHandThumb3
												{
													OFFSET -2.726974 -1.574417 1.574421
													CHANNELS 3 Xrotation Yrotation Zrotation
													JOINT RightHandThumb4
													{
														OFFSET -3.941010 -2.275345 2.275343
														CHANNELS 3 Xrotation Yrotation Zrotation
														End Site
														{
															OFFSET 0.000000 0.000000 0.000000
														}
													}
												}
											}
										}
										JOINT RightHandIndex1
										{
											OFFSET -24.424698 -1.985657 5.953444
											CHANNELS 3 Xrotation Yrotation Zrotation
											JOINT RightHandIndex2
											{
												OFFSET -6.426697 0.000000 0.000000
												CHANNELS 3 Xrotation Yrotation Zrotation
												JOINT RightHandIndex3
												{
													OFFSET -5.337898 0.000000 0.000000
													CHANNELS 3 Xrotation Yrotation Zrotation
													JOINT RightHandIndex4
													{
														OFFSET -4.409401 0.000000 0.000000
														CHANNELS 3 Xrotation Yrotation Zrotation
														End Site
														{
															OFFSET 0.000000 0.000000 0.000000
														}
													}
												}
											}
										}
										JOINT RightHandMiddle1
										{
											OFFSET -23.810097 0.000000 0.000000
											CHANNELS 3 Xrotation Yrotation Zrotation
											JOINT RightHandMiddle2
											{
												OFFSET -7.176498 0.000000 0.000000
												CHANNELS 3 Xrotation Yrotation Zrotation
												JOINT RightHandMiddle3
												{
													OFFSET -6.774902 0.000000 0.000000
													CHANNELS 3 Xrotation Yrotation Zrotation
													JOINT RightHandMiddle4
													{
														OFFSET -5.403328 0.000000 0.000000
														CHANNELS 3 Xrotation Yrotation Zrotation
														End Site
														{
															OFFSET 0.000000 0.000000 0.000000
														}
													}
												}
											}
										}
										JOINT RightHandRing1
										{
											OFFSET -22.908302 -0.839325 -6.020576
											CHANNELS 3 Xrotation Yrotation Zrotation
											JOINT RightHandRing2
											{
												OFFSET -6.337502 0.000000 0.000000
												CHANNELS 3 Xrotation Yrotation Zrotation
												JOINT RightHandRing3
												{
													OFFSET -5.779297 0.000000 0.000000
													CHANNELS 3 Xrotation Yrotation Zrotation
													JOINT RightHandRing4
													{
														OFFSET -4.965698 0.000000 0.000000
														CHANNELS 3 Xrotation Yrotation Zrotation
														End Site
														{
															OFFSET 0.000000 0.000000 0.000000
														}
													}
												}
											}
										}
										JOINT RightHandPinky1
										{
											OFFSET -20.037003 -1.530334 -10.950259
											CHANNELS 3 Xrotation Yrotation Zrotation
											JOINT RightHandPinky2
											{
												OFFSET -5.254700 0.000000 0.000000
												CHANNELS 3 Xrotation Yrotation Zrotation
												JOINT RightHandPinky3
												{
													OFFSET -4.810204 0.000000 0.000000
													CHANNELS 3 Xrotation Yrotation Zrotation
													JOINT RightHandPinky4
													{
														OFFSET -3.647202 0.000000 0.000000
														CHANNELS 3 Xrotation Yrotation Zrotation
														End Site
														{
															OFFSET 0.000000 0.000000 0.000000
														}
													}
												}
											}
										}
									}
								}
							}
						}
					}
				}
			}
		}
	}
	JOINT LeftUpLeg
	{
		OFFSET 15.427100 -6.655098 0.678600
		CHANNELS 3 Xrotation Yrotation Zrotation
		JOINT LeftLeg
		{
			OFFSET 4.081073 -39.591068 13.024000
			CHANNELS 3 Xrotation Yrotation Zrotation
			JOINT LeftFoot
			{
				OFFSET -4.081074 -37.707932 -15.979700
				CHANNELS 3 Xrotation Yrotation Zrotation
				JOINT LeftToeBase
				{
					OFFSET 5.346399 -15.068900 20.645000
					CHANNELS 3 Xrotation Yrotation Zrotation
					JOINT LeftToe_End
					{
						OFFSET 2.754700 0.931300 11.300900
						CHANNELS 3 Xrotation Yrotation Zrotation
						End Site
						{
							OFFSET 0.000000 0.000000 0.000000
						}
					}
				}
			}
		}
	}
	JOINT RightUpLeg
	{
		OFFSET -15.569500 -6.655098 0.678600
		CHANNELS 3 Xrotation Yrotation Zrotation
		JOINT RightLeg
		{
			OFFSET -4.081825 -39.591045 13.023800
			CHANNELS 3 Xrotation Yrotation Zrotation
			JOINT RightFoot
			{
				OFFSET 4.081824 -37.707954 -15.979600
				CHANNELS 3 Xrotation Yrotation Zrotation
				JOINT RightToeBase
				{
					OFFSET -5.346400 -15.068900 20.645000
					CHANNELS 3 Xrotation Yrotation Zrotation
					JOINT RightToe_End
					{
						OFFSET -2.754700 0.931300 11.300900
						CHANNELS 3 Xrotation Yrotation Zrotation
						End Site
						{
							OFFSET 0.000000 0.000000 0.000000
						}
					}
				}
			}
		}
	}
}
MOTION
Frames: 5
Frame Time: 0.016667
1.403533 114.099564 4.168350 -92.966012 1.023685 1.287166 3.824906 1.336467 -0.282844 17.173677 2.320171 -1.615368 0.000000 0.000000 0.000000 15.078700 2.910058 -1.904893 1.032864 0.830503 -3.592068 20.824683 3.567343 -10.053785 0.000002 0.000001 -0.000002 0.987235 5.865645 -0.070262 0.000000 0.000000 0.000000 17.540348 -48.233635 -39.213444 0.000162 -78.453001 0.000156 -11.155063 -10.690911 -3.204750 6.590535 -4.958670 16.122638 7.178840 21.567335 2.147343 -3.980790 36.507505 21.975999 -0.000000 -0.000001 -0.000002 0.659526 4.932348 -26.024460 0.169784 1.401609 -13.813544 0.169804 1.401616 -13.813545 0.000004 0.000003 0.000001 1.376922 6.461948 -24.994169 0.169873 1.401973 -13.817106 0.169790 1.401616 -13.813571 0.000002 0.000001 0.000000 2.098713 8.644291 -21.209675 0.169783 1.401618 -13.813541 0.169807 1.401625 -13.813544 0.000003 -0.000000 0.000001 2.123426 10.735864 -14.817566 0.167500 1.392245 -13.719347 0.169810 1.401706 -13.814463 0.000000 0.000000 -0.000002 1.003560 3.077426 16.318586 0.000000 0.000000 0.000000 -30.625325 39.526103 60.112550 0.000052 122.611239 -0.000042 2.149674 2.949042 16.100986 -3.770209 1.684403 8.767243 7.918276 -27.751660 -3.100769 -3.337701 -26.655594 -19.006776 -0.000000 -0.000001 -0.000001 -0.371390 2.206063 53.128346 1.396284 -3.326842 45.526660 0.376185 -1.835399 23.164137 0.000001 -0.000001 -0.000000 -1.457710 -4.435167 63.714655 1.929823 -3.776458 54.123095 1.822472 -3.696612 52.475780 -0.000001 0.000002 0.000001 0.113605 -5.549210 69.688038 2.144044 -3.922160 57.313258 2.117709 -3.905180 56.927229 -0.000001 0.000001 0.000001 2.818440 -6.533414 66.047588 2.835551 -4.286868 66.951618 2.835552 -4.286856 66.951618 0.000003 -0.000002 -0.000001 -2.910169 17.954368 19.365229 6.057394 4.897323 1.476392 23.228988 29.567619 -31.367528 2.018153 0.000002 -0.000021 0.000001 -0.000000 -0.000000 -2.869898 -17.332686 -14.920663 7.612131 -6.096323 -7.265779 33.606266 -29.863817 31.512338 -6.237109 0.000020 0.000000 0.000001 0.000001 0.000000 
1.357176 114.068245 4.215790 -92.873996 0.873172 1.213127 3.758636 1.314399 -0.262055 16.775792 2.298674 -1.540693 0.000000 0.000000 0.000000 14.708500 2.873935 -1.840032 1.206945 0.819801 -3.467084 21.720504 3.566618 -10.135183 0.000001 0.000000 0.000000 1.057899 5.646924 -0.072701 0.000000 0.000000 0.000000 17.692915 -47.941135 -39.648879 0.000128 -78.307108 0.000140 -11.274790 -10.604916 -3.471085 6.590531 -4.958668 16.122641 7.178843 21.567333 2.147336 -3.980790 36.507505 21.975994 -0.000001 0.000001 0.000002 0.659521 4.932352 -26.024457 0.169789 1.401605 -13.813546 0.169801 1.401614 -13.813546 0.000001 0.000002 0.000003 1.376916 6.461952 -24.994171 0.169873 1.401973 -13.817108 0.169790 1.401619 -13.813568 0.000001 0.000000 -0.000002 2.098710 8.644293 -21.209675 0.169784 1.401614 -13.813544 0.169804 1.401628 -13.813544 -0.000000 -0.000003 0.000001 2.123419 10.735865 -14.817566 0.167499 1.392249 -13.719343 0.169807 1.401708 -13.814464 -0.000002 0.000001 0.000001 0.998594 3.039517 16.387545 0.000000 0.000000 0.000000 -30.378386 39.942386 60.251906 0.000015 121.965541 -0.000011 1.852874 2.561970 15.661363 -3.770204 1.684391 8.767252 7.918276 -27.751663 -3.100772 -3.337706 -26.655597 -19.006781 -0.000001 -0.000001 -0.000001 -0.371388 2.206065 53.128346 1.396277 -3.326844 45.526667 0.376194 -1.835386 23.164144 0.000002 0.000001 -0.000000 -1.457708 -4.435178 63.714641 1.929819 -3.776467 54.123061 1.822461 -3.696617 52.475780 0.000001 0.000002 0.000000 0.113583 -5.549221 69.688038 2.144044 -3.922166 57.313265 2.117702 -3.905178 56.927226 -0.000002 -0.000001 -0.000001 2.818449 -6.533420 66.047588 2.835554 -4.286862 66.951584 2.835545 -4.286859 66.951611 0.000006 -0.000001 -0.000002 -3.017822 17.922983 19.390620 6.014186 4.964299 1.502055 23.726592 29.577554 -31.391426 1.641686 0.000005 0.000002 -0.000001 -0.000002 0.000000 -3.047675 -17.290351 -14.828920 7.512879 -6.219115 -7.127682 33.899223 -29.661131 31.257907 -6.538378 0.000003 0.000006 0.000000 -0.000001 0.000001 
1.318744 114.044006 4.247734 -92.662731 0.787266 1.135408 3.662815 1.262328 -0.243119 16.309073 2.217897 -1.457731 0.000000 0.000000 0.000000 14.304890 2.791180 -1.752529 1.371160 0.810483 -3.366242 22.599865 3.500708 -10.232337 -0.000000 0.000000 -0.000001 1.036040 5.431829 -0.068784 0.000000 0.000000 0.000000 17.978701 -47.538974 -40.193744 -0.000021 -78.189451 -0.000020 -11.401806 -10.483624 -3.731914 6.590533 -4.958676 16.122646 7.178848 21.567333 2.147341 -3.980791 36.507505 21.975992 -0.000001 0.000002 -0.000001 0.659519 4.932349 -26.024457 0.169784 1.401609 -13.813546 0.169804 1.401614 -13.813545 -0.000002 -0.000000 0.000001 1.376919 6.461945 -24.994165 0.169870 1.401972 -13.817106 0.169791 1.401617 -13.813568 -0.000003 0.000002 0.000001 2.098709 8.644284 -21.209674 0.169783 1.401616 -13.813541 0.169802 1.401622 -13.813543 0.000001 -0.000001 0.000001 2.123423 10.735863 -14.817561 0.167496 1.392243 -13.719347 0.169811 1.401704 -13.814462 0.000000 0.000002 -0.000002 1.002753 3.007375 16.447017 0.000000 0.000000 0.000000 -30.000687 40.337670 60.294260 0.000008 121.436747 -0.000016 1.901607 2.536331 15.603092 -3.770191 1.684402 8.767254 7.918271 -27.751663 -3.100765 -3.337710 -26.655597 -19.006798 0.000001 -0.000000 0.000001 -0.371399 2.206056 53.128346 1.396296 -3.326837 45.526653 0.376180 -1.835390 23.164155 0.000002 -0.000002 0.000000 -1.457704 -4.435169 63.714655 1.929830 -3.776462 54.123088 1.822458 -3.696611 52.475763 0.000002 -0.000002 0.000000 0.113499 -5.549179 69.688051 2.144061 -3.922164 57.313251 2.117711 -3.905166 56.927226 -0.000000 0.000001 0.000001 2.818451 -6.533408 66.047588 2.835544 -4.286863 66.951611 2.835543 -4.286848 66.951611 0.000002 -0.000001 -0.000001 -3.137851 17.877865 19.412538 5.808628 5.049852 1.479136 24.444118 29.588137 -31.411091 0.988540 0.000009 0.000002 -0.000001 -0.000002 0.000000 -3.267242 -17.240390 -14.761473 7.244788 -6.350251 -6.908553 34.537897 -29.473533 31.024860 -7.028804 0.000005 -0.000025 0.000000 0.000001 0.000000 
1.305211 114.026047 4.271515 -92.244061 0.795612 1.008461 3.559278 1.158081 -0.192047 15.819698 2.050238 -1.351606 0.000000 0.000000 0.000000 13.873239 2.617390 -1.626179 1.388062 0.796734 -3.274182 23.145665 3.425961 -10.301202 -0.000000 -0.000000 0.000000 1.007899 5.213138 -0.072448 0.000000 0.000000 0.000000 18.126089 -46.854766 -41.156575 -0.000237 -78.131531 -0.000236 -11.365468 -10.354294 -4.045947 6.590532 -4.958675 16.122639 7.178839 21.567331 2.147338 -3.980788 36.507505 21.975987 -0.000003 0.000001 -0.000000 0.659519 4.932350 -26.024457 0.169785 1.401610 -13.813545 0.169802 1.401617 -13.813544 0.000001 0.000001 -0.000000 1.376918 6.461946 -24.994171 0.169876 1.401971 -13.817107 0.169788 1.401617 -13.813570 0.000001 0.000001 0.000000 2.098710 8.644293 -21.209674 0.169784 1.401617 -13.813544 0.169802 1.401623 -13.813543 -0.000000 0.000001 -0.000001 2.123422 10.735867 -14.817566 0.167497 1.392242 -13.719347 0.169811 1.401705 -13.814463 0.000001 0.000000 0.000000 0.964783 2.960578 16.488490 0.000000 0.000000 0.000000 -29.252133 40.564873 59.893116 0.000011 121.381423 -0.000010 2.367300 2.832860 15.788908 -3.770200 1.684399 8.767251 7.918272 -27.751663 -3.100767 -3.337698 -26.655602 -19.006782 -0.000002 0.000000 0.000002 -0.371394 2.206053 53.128350 1.396306 -3.326826 45.526660 0.376184 -1.835392 23.164144 -0.000001 0.000004 -0.000001 -1.457713 -4.435179 63.714641 1.929829 -3.776466 54.123085 1.822481 -3.696617 52.475753 -0.000000 -0.000000 0.000004 0.113345 -5.549131 69.688031 2.144042 -3.922162 57.313272 2.117705 -3.905169 56.927226 -0.000000 -0.000002 -0.000004 2.818442 -6.533425 66.047595 2.835557 -4.286868 66.951611 2.835559 -4.286842 66.951618 0.000000 -0.000000 -0.000001 -3.422949 17.784470 19.465993 5.644121 5.259001 1.411459 25.325341 29.577694 -31.425625 0.245345 -0.000017 0.000001 -0.000000 -0.000001 0.000000 -3.732398 -17.148850 -14.439997 6.980959 -6.028980 -6.978690 35.857059 -29.725820 31.191066 -7.765473 0.000016 -0.000001 -0.000001 0.000001 -0.000001 
1.285303 114.006973 4.389915 -91.609748 0.887436 0.865748 3.454205 1.039875 -0.148772 15.322307 1.836153 -1.235604 0.000000 0.000000 0.000000 13.427532 2.371647 -1.472053 1.467845 0.767054 -3.162884 23.529962 3.337671 -10.285320 -0.000001 0.000000 0.000003 0.975470 4.991312 -0.080095 0.000000 0.000000 0.000000 18.149356 -45.959247 -42.436546 0.000066 -78.113820 0.000086 -11.178038 -10.210917 -4.433500 6.590533 -4.958672 16.122644 7.178845 21.567330 2.147333 -3.980793 36.507505 21.975994 0.000002 0.000002 -0.000000 0.659522 4.932352 -26.024457 0.169789 1.401611 -13.813544 0.169805 1.401616 -13.813547 0.000004 -0.000003 0.000001 1.376922 6.461952 -24.994164 0.169877 1.401974 -13.817110 0.169788 1.401619 -13.813562 -0.000003 -0.000002 -0.000000 2.098713 8.644292 -21.209670 0.169786 1.401613 -13.813544 0.169802 1.401623 -13.813544 0.000002 0.000004 0.000001 2.123424 10.735866 -14.817561 0.167499 1.392245 -13.719343 0.169810 1.401708 -13.814461 -0.000002 0.000003 0.000000 0.920526 2.913160 16.512389 0.000000 0.000000 0.000000 -28.275993 40.716110 59.228955 0.000005 121.798761 -0.000020 2.737753 2.715672 15.784021 -3.770208 1.684399 8.767242 7.918273 -27.751663 -3.100763 -3.337704 -26.655607 -19.006794 0.000004 -0.000001 0.000002 -0.371413 2.206057 53.128360 1.396299 -3.326842 45.526660 0.376185 -1.835383 23.164137 0.000000 0.000000 0.000000 -1.457718 -4.435165 63.714655 1.929827 -3.776463 54.123085 1.822469 -3.696607 52.475763 -0.000002 0.000002 0.000000 0.113103 -5.549038 69.688051 2.144052 -3.922166 57.313272 2.117705 -3.905165 56.927226 -0.000001 0.000000 0.000001 2.818431 -6.533412 66.047581 2.835567 -4.286868 66.951611 2.835548 -4.286837 66.951611 0.000005 -0.000000 -0.000003 -4.020491 17.587597 19.576721 5.750725 5.509386 1.270288 26.280205 29.559372 -31.456416 -0.570115 0.000015 -0.000020 -0.000000 0.000000 0.000000 -4.350834 -17.010069 -14.190801 6.941566 -6.051677 -7.059473 36.579290 -29.790150 31.354048 -8.215539 0.000001 -0.000008 -0.000000 0.000001 -0.000000 
